<svg xmlns="http://www.w3.org/2000/svg" width="24" height="24" viewBox="0 0 24 24" fill="none" stroke="currentColor" stroke-width="1.8" stroke-linecap="round" stroke-linejoin="round">
  <path d="M12.5 3l-2.2.1c-2.7.1-4.8 2.4-4.6 5.1.1 1.7 1.1 3.2 2.6 4L8 15.4l4-2.2h3.2c2.7 0 4.9-2.2 4.9-4.9S18 3 15.3 3h-2.8Z"/>
  <path d="M7 20.2c.2 1.2 1.1 1.9 2.4 1.9a.9.9 0 0 0 .8-.5l.8-1.6"/>
  <path d="M16 17.4c0 .7 1 1.4 2 1.5 1 .1 2-.5 2-1.2s-.9-1.5-2-1.6-2 .5-2 1.2"/>
  <path d="M17.2 12.7c-.1 0-.3 0-.4.1a2.8 2.8 0 0 0-.7.4c-.5.3-.4 1.8.3 2.8.7.9 1.8 1.1 2.2.6"/>
</svg>
